<svg
  width="200"
  height="200"
  viewBox="0 0 200 200"
  fill="none"
  xmlns="http://www.w3.org/2000/svg"
>
  <path d="M200 0H0V200H200V0Z" fill="rgb(70, 92, 54)" />
  <path
    d="M60.7858 99.8159C64.5808 102.66 68.5341 104.24 72.9616 103.924C76.2825 103.766 79.6025 103.292 82.9233 103.292C85.7694 103.292 87.9835 102.028 89.8805 100.29C93.3591 96.9711 96.3636 93.3373 98.7355 89.0706C102.847 81.6437 107.748 74.6914 114.074 69.0027C118.027 65.5265 122.613 64.4206 127.673 64.5783C128.622 64.5783 129.57 64.8944 130.677 64.8944C134.631 65.3681 135.421 65.6842 138.267 69.1602C137.318 70.2661 136.369 71.5305 135.421 72.6364C134.472 73.9007 133.365 75.1643 132.258 76.271C130.203 78.4828 127.515 77.8515 124.985 77.3769C122.139 77.0608 119.451 77.0608 116.604 77.693C110.753 78.9574 107.275 82.9073 104.744 87.8061C103.005 91.4407 101.423 95.233 99.8426 98.8666C97.6292 103.607 94.4662 107.715 89.8809 109.77C85.4534 111.824 80.3932 113.404 75.4915 113.72C68.5343 114.194 62.0513 111.509 56.0422 107.874C52.8799 105.978 52.405 105.978 50.6658 109.138C47.6613 114.669 45.6055 120.674 46.8708 127.152C47.1871 128.574 47.8197 130.154 48.7687 131.418C55.0939 140.108 64.2647 144.375 74.5427 146.587C78.9702 147.535 83.5555 148.325 88.1416 147.377C89.4068 147.219 90.6713 147.061 91.6202 146.428C95.2574 143.9 98.736 141.214 102.215 138.528C102.689 138.054 103.005 136.947 102.847 136.158C102.689 134.736 102.373 133.155 101.74 131.892C99.3686 126.203 99.0522 120.673 101.898 115.142C107.591 104.239 116.446 97.2871 128.463 95.0745C133.365 94.1263 138.267 95.0745 143.011 96.655C147.122 98.077 151.233 97.9193 155.345 97.6032C157.242 97.4456 158.507 96.655 159.456 94.9168C160.879 92.2304 161.669 89.3866 162.302 86.2266C163.408 80.6963 162.144 75.482 160.562 70.2671C159.456 66.9486 157.4 63.7886 155.028 61.2607C151.075 56.8363 146.806 52.7279 142.378 49.0935C138.109 45.6173 133.207 42.9309 127.514 42.4574C126.249 42.2997 124.826 41.9836 123.561 41.5091C119.45 40.2447 115.655 40.5608 111.86 42.615C110.911 43.0887 109.804 43.5633 108.855 43.8793C108.381 44.037 107.59 43.7217 107.274 43.4056C106.957 43.0895 107.116 42.2997 107.274 41.6675C107.431 41.1938 107.748 40.7193 108.222 40.5616C111.227 38.5075 114.073 36.4534 117.71 35.1891C124.51 32.6611 131.309 33.7671 138.109 35.0314C139.69 35.3475 141.271 35.8212 142.694 36.6118C152.182 41.8262 161.194 47.6724 166.254 57.6276C169.733 64.2637 171.788 71.0584 170.998 78.8022C170.208 86.5451 166.57 93.0238 162.775 99.5023C159.138 105.507 153.13 107.087 146.647 107.403C142.062 107.56 137.792 106.613 133.364 105.033C127.355 102.978 120.872 102.03 114.864 105.665C110.436 108.351 108.697 112.301 108.855 117.2C109.013 121.151 109.962 124.943 110.91 128.735C111.859 132.37 113.124 132.843 116.603 131.421C119.291 130.315 121.821 129.21 124.509 128.261C125.775 127.788 127.198 127.313 128.463 127.472C133.681 127.945 139.057 128.42 143.485 131.737C147.28 134.582 151.391 137.268 154.869 140.428C157.241 142.639 158.981 145.642 160.72 148.328C161.669 149.909 161.669 151.647 160.404 153.385C157.399 157.336 154.711 161.76 150.126 164.288C144.749 167.29 139.373 167.132 133.997 164.446C132.258 163.497 130.36 163.024 128.621 162.391C127.988 162.234 127.355 162.075 126.881 161.759C123.719 159.389 120.241 157.177 117.394 154.332C114.548 151.646 112.333 148.327 109.804 145.326C108.855 144.22 107.906 143.114 106.642 141.85C105.693 142.324 104.586 142.798 103.796 143.43C102.214 144.536 100.633 145.8 99.2104 147.065C91.7782 153.859 82.7654 156.23 72.9613 155.44C66.3205 154.808 59.8373 153.86 53.9859 149.91C48.2931 146.117 42.6012 142.483 38.964 136.637C38.4899 135.847 37.8573 134.899 37.8573 133.95C37.6996 130.632 37.6996 127.314 37.8573 124.153C38.3314 118.148 41.3359 112.934 43.5501 107.561C44.1827 105.981 45.7634 104.717 47.0287 103.137C46.3961 102.347 45.922 101.399 45.1308 100.925C40.8619 97.923 37.5411 94.2892 35.3269 89.3902C29.0016 83.2277 29.16 74.8527 28.8439 67.1116C28.5276 56.9984 35.3269 50.6782 43.708 48.308C51.9304 45.9377 60.6277 44.8318 69.3251 46.2538C74.5431 47.2021 79.2868 49.0979 82.924 53.0485C86.2448 56.6831 89.2493 60.4754 90.8301 65.3733C92.4116 70.1138 90.356 73.7485 87.984 77.3823C85.6121 80.8584 82.766 84.0184 80.0779 87.021C78.6549 88.6014 77.0734 89.865 75.4926 91.1292C74.86 91.7613 73.9111 91.919 73.437 92.7096C71.6977 94.9214 69.3259 95.5537 66.7962 96.5019C64.7381 97.7638 62.5248 97.7638 60.7854 99.8179L60.7858 99.8159ZM42.1267 69.0021C42.7593 78.9567 47.6609 87.1734 54.3025 94.6011C55.2515 95.5494 56.2004 95.3909 57.307 94.7588C62.3672 91.4403 67.9014 89.07 73.4356 86.8583C78.3372 84.8041 81.1839 78.0095 79.9186 72.9529C78.8119 68.5285 75.8075 65.21 73.1192 61.7339C70.9059 59.0475 68.2176 57.468 64.8967 56.5196C59.8365 55.0976 54.7765 56.0458 50.0326 57.1517C44.1821 58.5737 43.8657 59.3635 42.6004 65.2107C42.2841 66.3174 42.2841 67.581 42.1264 69.003L42.1267 69.0021ZM116.919 137.58C118.026 139.318 118.501 140.424 119.291 141.372C122.137 144.691 124.825 148.008 127.83 151.011C129.411 152.591 131.467 153.855 133.364 155.119C134.787 156.067 136.369 156.699 137.792 157.647C140.638 159.543 144.117 159.859 147.279 160.017C150.442 160.333 151.548 158.437 149.968 155.593C148.861 153.381 147.438 151.011 145.54 149.43C141.745 145.954 137.475 142.952 133.364 139.949C129.886 137.421 125.616 136.947 121.505 136.473C120.398 136.158 118.975 136.948 116.919 137.58H116.919Z"
    fill="white"
  />
</svg>
