<svg viewBox="0 0 802 1000" fill="none" xmlns="http://www.w3.org/2000/svg">
<path d="M655.811 725.321L655.576 728.872C655.576 737.164 659.362 742.845 666.939 745.686C668.6 745.921 669.545 746.396 670.02 746.631H700.568C701.038 746.631 701.038 746.871 701.038 747.341C702.458 747.106 703.408 747.106 704.118 747.106H708.379C724.484 747.106 740.823 750.657 757.397 757.999C757.397 758.709 753.606 767.236 745.794 783.811V784.521H745.319C729.455 777.889 715.246 774.813 702.698 774.813C700.568 774.813 698.907 775.048 697.722 775.048C695.121 774.573 693.226 774.573 691.565 774.573H691.095C678.072 774.573 669.545 779.074 665.519 788.307C663.795 793.256 662.915 798.46 662.918 803.701C662.918 811.277 667.179 816.489 675.941 819.329C683.518 821.695 690.62 822.88 697.252 822.88C707.669 823.59 716.907 825.011 724.954 827.141C735.846 830.222 743.898 835.428 749.58 842.77C755.736 851.533 758.817 861.95 758.817 873.793C758.817 892.263 749.345 906.466 730.64 915.939C719.037 920.915 708.144 923.516 697.487 923.516H697.012C677.362 923.516 657.472 919.02 637.817 909.782L636.156 908.602C644.208 893.443 648.709 884.921 649.89 883.26C654.626 885.631 660.547 887.762 667.649 889.892C673.571 891.788 681.623 892.973 691.805 893.918C693.701 893.683 695.356 893.683 696.542 893.683H703.168C719.982 893.683 731.11 888.707 736.322 878.764C737.742 874.738 738.452 871.187 738.452 867.872V865.031C738.452 853.428 732.531 845.851 721.168 842.06C711.695 838.984 702.458 837.564 693.701 837.564C684.228 836.614 677.362 835.904 672.861 834.718C661.258 831.408 653.446 826.671 649.89 820.515C645.394 814.828 643.023 806.066 643.023 794.703C643.023 785.231 645.629 776.469 650.605 768.417V768.182C648.469 763.21 647.524 757.999 647.524 752.553V750.187C647.524 740.715 650.13 732.428 655.336 725.561L655.811 725.321ZM485.663 749.622V749.972C485.663 749.972 485.663 751.357 485.318 753.438C485.318 761.415 489.824 766.961 498.842 769.387C501.267 769.737 502.308 770.432 502.308 771.122C506.124 770.082 509.589 769.737 512.365 769.737H593.51C605.999 769.737 613.971 774.243 617.787 782.915C619.867 787.076 620.907 790.542 620.907 793.318V972.948L620.212 973.643V974.684C620.212 987.517 613.971 995.839 601.488 999.305C599.062 1000 597.326 1000 595.941 1000H552.94C552.59 1000 552.245 1000 552.245 999.65V975.029C552.245 974.684 552.59 974.684 552.94 974.684H569.93C577.907 974.684 583.458 970.177 586.229 961.855C586.579 959.775 586.924 958.039 586.924 956.649V905.676H509.244C498.147 905.676 490.865 900.125 486.704 889.027C485.663 885.906 484.968 882.785 484.968 880.015V799.214C479.077 792.623 475.951 784.996 475.951 775.978V774.243C475.951 764.536 479.422 756.214 485.663 749.622ZM503.003 816.204V858.514C503.348 866.836 505.778 870.997 509.939 870.997C510.63 871.342 511.325 871.343 512.365 871.343H566.464C576.171 871.343 582.418 868.917 585.188 863.716C586.229 861.98 586.579 860.245 586.579 858.514V817.594C586.579 811.698 583.108 807.536 576.521 805.106C574.786 804.416 572.705 804.066 569.584 804.066H519.647C512.02 804.066 506.469 806.841 503.698 812.393C503.003 813.778 503.003 815.163 503.003 816.204ZM316.602 751.727C316.602 752.112 316.987 752.112 316.987 752.112C316.987 752.498 316.602 753.653 316.217 755.578C316.217 764.816 321.222 770.592 331.231 773.673C332.386 774.058 333.541 774.058 334.696 774.058H439.022C447.494 774.058 455.191 777.904 461.737 785.606C464.433 790.227 465.973 795.228 465.973 800.235V923.426C465.973 923.811 465.588 923.811 465.588 923.811H447.494C447.494 923.811 447.109 923.811 447.109 923.426V831.032C447.109 822.18 443.643 816.404 435.946 812.938C433.635 812.168 430.94 811.397 428.244 811.397H353.945V923.426C353.945 923.811 353.56 923.811 353.56 923.811H316.602C316.217 923.811 316.217 923.811 316.217 923.426V806.396C309.673 799.464 306.208 790.997 306.208 780.985V779.059C306.208 768.282 309.673 759.044 316.602 751.727ZM267.496 700.374H267.843C267.843 700.72 267.496 702.11 267.496 703.845C267.496 712.172 272.008 717.379 280.684 720.154C283.113 720.505 284.154 721.195 284.154 721.545C284.154 721.89 285.889 722.585 288.665 723.625C296.994 728.487 301.158 735.423 301.158 744.1V754.163C301.158 754.513 300.811 754.513 300.464 754.513H276.519C272.355 753.818 269.578 752.778 268.191 750.692C261.597 744.101 258.127 736.118 258.127 726.751V725.016C258.127 715.298 261.25 706.966 267.496 700.374ZM266.802 788.172H300.117C300.464 788.172 300.464 788.172 300.464 788.522V923.171C300.464 923.516 300.464 923.516 300.117 923.516H266.802C266.455 923.516 266.455 923.516 266.455 923.171V788.522C266.455 788.172 266.802 788.172 266.802 788.172ZM106.41 671.882L106.109 676.398C106.109 686.631 110.624 693.553 119.654 697.769C121.46 698.369 122.964 698.674 124.168 698.674H131.092C131.392 698.674 131.693 698.974 131.693 699.274V757.364C131.693 760.074 131.392 777.834 130.79 810.642C130.79 813.353 130.489 814.853 130.489 815.759H131.092C142.83 799.804 167.211 766.096 204.233 714.023C210.554 704.991 214.166 700.174 215.069 699.574H238.246V700.174C187.979 769.407 162.395 805.226 160.89 807.331V807.631C161.492 808.232 195.203 846.461 262.024 923.216V923.516H215.671C215.37 923.216 190.086 895.224 140.121 838.934C138.315 837.729 136.81 836.829 135.907 836.829C133.499 836.829 131.994 840.14 131.693 846.161V923.216C131.693 923.516 131.392 923.516 131.092 923.516H113.031C112.73 923.516 112.73 923.516 112.73 923.216V742.92C108.818 742.92 104.303 737.199 98.8849 725.461C96.7779 718.839 95.8752 712.518 95.8752 706.801V704.39C95.8752 692.052 99.186 681.215 105.808 672.182L106.41 671.882ZM681.513 464.404L681.278 468.183C681.278 477.158 685.529 482.827 694.031 485.661C695.446 485.897 696.391 486.133 697.337 486.133H801.733C801.968 486.133 801.968 486.369 801.968 486.606V521.089C801.968 521.324 801.968 521.559 801.733 521.559H750.95V662.565L750.48 662.8H736.307C735.836 662.8 735.836 662.8 735.836 662.565V521.559H692.14C687.179 521.559 683.873 520.379 682.458 518.019C676.316 511.167 673.246 502.665 673.246 492.274V490.385C673.246 480.465 675.846 471.726 681.043 464.64L681.513 464.404Z" fill="black"/>
<path d="M590.665 507.311C590.665 507.661 591.015 507.661 591.015 507.661C591.015 508.006 590.665 509.051 590.32 510.792C590.32 519.139 594.841 524.355 603.883 527.141C604.928 527.486 605.969 527.486 607.014 527.486H701.278C708.93 527.486 715.886 530.967 721.803 537.923C724.238 542.095 725.629 546.621 725.629 551.142V662.45C725.629 662.795 725.279 662.795 725.279 662.795H708.93C708.93 662.795 708.585 662.795 708.585 662.45V578.969C708.585 570.967 705.454 565.751 698.497 562.62C696.411 561.925 693.976 561.229 691.54 561.229H624.408V662.45C624.408 662.795 624.058 662.795 624.058 662.795H590.665C590.32 662.795 590.32 662.795 590.32 662.45V556.703C584.403 550.447 581.272 542.79 581.272 533.748V532.007C581.272 522.27 584.403 513.922 590.665 507.311ZM157.185 507.466L157 510.252C157 517.303 160.34 521.754 167.207 523.795C167.763 523.795 168.134 523.985 168.505 524.355H172.96C177.043 524.17 179.27 523.985 179.641 523.985H234.573C245.152 523.985 251.276 529.181 253.132 539.574C253.132 542.17 252.946 544.21 252.946 545.881V564.81C252.946 564.995 252.946 564.995 252.761 564.995H242.739C242.554 564.995 242.182 563.51 241.625 560.914C239.769 555.903 235.501 553.492 229.191 553.492H197.828C194.673 553.492 190.404 553.492 185.023 553.677C184.837 553.492 184.466 553.492 184.28 553.492C179.826 553.492 176.671 555.348 174.63 559.244C174.073 560.729 173.888 562.4 173.888 563.885V589.492H219.17C219.355 589.492 219.355 589.682 219.355 589.867V606.941C219.355 607.126 219.355 607.311 219.17 607.311H173.888V624.2C173.888 631.252 175.187 635.703 178.156 637.188C180.383 639.044 182.981 639.789 185.765 639.789H253.688C253.874 639.789 253.874 639.974 253.874 640.159V662.615H183.167C181.682 662.615 179.455 662.615 176.857 662.8C173.331 662.8 169.805 661.315 166.279 658.159C163.495 655.378 162.01 651.107 162.01 645.171V551.447C162.01 551.262 161.082 550.892 159.041 550.337C153.473 544.77 150.689 537.719 150.689 528.991V527.511C150.689 519.714 152.731 513.217 156.814 507.651L157.185 507.466ZM318.729 536.733L318.428 540.949C318.428 550.277 322.642 556.598 331.37 559.609H426.783C439.727 559.609 448.154 565.025 452.37 575.563C453.275 578.874 453.875 581.885 453.875 584.89V661.945C453.875 671.277 449.359 676.694 440.032 678.804H340.701V757.664C340.701 757.964 340.701 757.964 340.4 757.964H324.448C324.147 757.964 323.846 757.964 323.846 757.664V599.039C323.846 599.039 322.942 598.439 321.437 597.834C313.612 590.007 309.398 579.774 309.398 567.436V565.325C309.398 554.493 312.408 544.86 318.127 537.033L318.729 536.733ZM340.701 620.109V653.518H419.562C429.494 653.518 435.516 650.207 437.621 643.585C438.526 641.48 438.827 639.374 438.827 637.569V618.604C438.827 610.777 435.516 605.36 428.894 602.05C426.483 601.144 423.473 600.844 418.962 600.844H356.654C349.43 600.844 344.614 603.555 341.905 609.272C341.002 611.982 340.701 615.593 340.701 620.109Z" fill="black"/>
<path d="M262.9 464.3C262.9 464.741 263.34 464.741 263.34 464.741C263.34 465.181 262.9 466.941 262.9 469.142C262.9 479.705 268.622 486.747 280.066 489.828C281.826 489.828 283.146 490.268 284.467 491.148C287.108 490.708 289.749 490.268 291.949 490.268H309.995C335.962 490.268 358.849 490.268 379.096 489.828C389.659 490.268 408.144 490.268 434.11 490.268L434.55 490.708V532.962C434.55 533.402 434.11 533.402 433.67 533.402H327.159C317.477 533.402 310.435 537.803 306.474 546.166C305.593 548.806 305.153 551.887 305.153 554.088V662.36C305.153 662.8 304.713 662.8 304.713 662.8H262.02C261.58 662.8 261.58 662.8 261.58 662.36V526.801C254.538 518.879 251.017 509.191 251.017 498.191V495.99C251.017 483.666 254.978 473.103 262.9 464.3ZM453.705 464.537L453.465 468.09C453.465 477.091 457.731 482.776 466.494 485.382C467.204 485.382 467.679 485.618 468.154 486.092H473.835C479.047 485.855 481.892 485.618 482.368 485.618H552.48C565.984 485.618 573.801 492.251 576.166 505.515C576.166 508.831 575.931 511.437 575.931 513.572V537.734C575.931 537.969 575.931 537.969 575.696 537.969H562.903C562.668 537.969 562.193 536.073 561.482 532.757C559.112 526.361 553.665 523.28 545.613 523.28H505.578C501.552 523.28 496.106 523.28 489.234 523.52C488.999 523.28 488.524 523.28 488.289 523.28C482.603 523.28 478.577 525.65 475.971 530.627C475.261 532.522 475.021 534.653 475.021 536.548V569.236H532.82C533.055 569.236 533.055 569.471 533.055 569.712V591.502C533.055 591.737 533.055 591.977 532.82 591.977H475.021V613.533C475.021 622.535 476.681 628.216 480.472 630.112C483.313 632.482 486.629 633.428 490.185 633.428H576.876C577.116 633.428 577.116 633.668 577.116 633.903V662.565H486.864C484.973 662.565 482.127 662.565 478.812 662.8C474.311 662.8 469.809 660.905 465.308 656.879C461.757 653.328 459.862 647.876 459.862 640.299V520.674C459.862 520.439 458.677 519.964 456.071 519.254C448.964 512.147 445.413 503.15 445.413 492.014V490.119C445.413 480.17 448.019 471.88 453.23 464.774L453.705 464.537ZM24.9828 410.867L24.6817 415.382C24.6817 425.917 29.4974 433.141 39.1294 436.753C41.2364 437.054 42.4402 437.656 43.0423 437.957H81.8706C82.4728 437.957 82.4728 438.258 82.4728 438.86C84.2787 438.558 85.4825 438.558 86.3853 438.558H91.8036C112.271 438.558 133.04 443.074 154.109 452.404C154.109 453.307 149.293 464.143 139.361 485.213V486.116H138.758C118.592 477.688 100.532 473.775 84.5793 473.775C81.8706 473.775 79.7636 474.076 78.2587 474.076C74.9479 473.474 72.5398 473.474 70.4327 473.474H69.8306C53.2759 473.474 42.4402 479.193 37.3234 490.932C35.2164 496.952 34.0126 503.575 34.0126 510.497C34.0126 520.129 39.4304 526.751 50.5672 530.362C60.1992 533.372 69.2289 534.878 77.6566 534.878C90.9004 535.778 102.639 537.583 112.873 540.294C126.719 544.21 136.953 550.832 144.176 560.159C152.002 571.297 155.915 584.54 155.915 599.589C155.915 623.07 143.875 641.13 120.097 653.168C105.348 659.489 91.5025 662.8 77.9576 662.8H77.3555C52.3732 662.8 27.0898 657.079 2.10703 645.341L0 643.835C10.2341 624.575 15.953 613.738 17.4579 611.632C23.4774 614.643 31.0023 617.348 40.0326 620.059C47.557 622.465 57.7911 623.97 70.7338 625.175C73.1419 624.875 75.2485 624.875 76.7538 624.875H85.1815C106.552 624.875 120.699 618.554 127.321 605.911C129.127 600.794 130.03 596.278 130.03 592.067V588.456C130.03 573.708 122.505 564.075 108.057 559.259C96.0172 555.343 84.2787 553.537 73.1419 553.537C61.1019 552.332 52.3732 551.432 46.6543 549.927C31.9055 545.71 21.9725 539.694 17.4579 531.867C11.739 524.645 8.7287 513.507 8.7287 499.059C8.7287 487.019 12.04 475.882 18.3606 465.648V465.347C15.6519 459.026 14.4476 452.404 14.4476 445.482V442.471C14.4476 430.432 17.759 419.897 24.3806 411.168L24.9828 410.867ZM489.184 319.705L489.024 322.072C489.024 328.067 491.865 331.854 497.701 333.589C498.177 333.589 498.492 333.747 498.807 334.063H502.593C506.064 333.905 507.959 333.747 508.274 333.747H554.976C563.968 333.747 569.174 338.165 570.755 347C570.755 349.209 570.595 350.944 570.595 352.365V368.458C570.595 368.615 570.595 368.615 570.44 368.615H561.918C561.763 368.615 561.447 367.354 560.972 365.144C559.392 360.884 555.766 358.833 550.4 358.833H523.738C521.052 358.833 517.426 358.833 512.85 358.991C512.69 358.833 512.375 358.833 512.22 358.833C508.434 358.833 505.748 360.411 504.013 363.725C503.543 364.987 503.383 366.407 503.383 367.669V389.442H541.882C542.038 389.442 542.038 389.6 542.038 389.758V404.273C542.038 404.431 542.038 404.588 541.882 404.588H503.383V418.946C503.383 424.942 504.488 428.729 507.014 429.991C508.904 431.568 511.115 432.199 513.48 432.199H571.225C571.385 432.199 571.385 432.357 571.385 432.515V451.606H511.275C510.01 451.606 508.119 451.606 505.908 451.764C502.913 451.764 499.912 450.502 496.916 447.819C494.546 445.453 493.285 441.824 493.285 436.775V357.098C493.285 356.94 492.495 356.625 490.76 356.151C486.028 351.418 483.663 345.423 483.663 338.007V336.745C483.663 330.118 485.398 324.596 488.869 319.863L489.184 319.705ZM394.198 325.143L394.047 327.412C394.047 332.555 396.316 336.035 400.855 338.153C401.762 338.455 402.517 338.607 402.973 338.607H407.814C407.964 338.607 407.964 338.758 407.964 338.758V393.37H456.981V338.758C456.981 338.607 457.131 338.607 457.281 338.607H473.32C473.47 338.607 473.62 338.758 473.62 338.758V451.613C473.62 451.764 473.47 451.764 473.32 451.764H457.281C457.131 451.764 456.981 451.764 456.981 451.613V407.59H407.964V451.613C407.964 451.764 407.964 451.764 407.814 451.764H398.585C398.434 451.764 398.434 451.764 398.434 451.613V360.996C395.56 360.996 392.837 357.971 390.416 351.768C389.358 348.894 388.903 345.868 388.903 342.691V341.481C388.903 335.127 390.568 329.833 393.896 325.294L394.198 325.143Z" fill="black"/>
<path d="M311.483 265.315L311.261 268.867C311.261 277.301 315.256 282.628 323.247 285.292C324.578 285.514 325.466 285.736 326.354 285.736H424.463C424.683 285.736 424.683 285.958 424.683 286.18V318.586C424.683 318.808 424.683 319.03 424.463 319.03H376.74V451.542L376.296 451.764H362.978C362.534 451.764 362.534 451.764 362.534 451.542V319.03H321.471C316.81 319.03 313.703 317.921 312.371 315.701C306.6 309.264 303.714 301.273 303.714 291.507V289.731C303.714 280.409 306.156 272.196 311.039 265.537L311.483 265.315ZM242.541 325.862L242.395 328.06C242.395 332.895 244.446 336.412 248.842 338.317C249.574 338.61 250.454 338.756 251.333 338.756H254.117C257.487 338.609 260.564 338.463 263.641 338.463H291.042C294.412 338.463 299.394 338.463 305.695 338.609C308.625 339.195 310.969 340.075 312.874 341.54C315.072 343.445 316.537 345.643 317.27 347.987L317.71 350.625C317.71 352.969 317.563 355.02 317.563 356.486V370.552C317.563 370.845 317.563 370.845 317.27 370.845H309.504C309.357 370.845 309.064 369.82 308.625 367.769C307.746 365.424 306.281 363.812 304.522 362.786C303.79 362.054 299.834 361.614 292.654 361.614H289.87C285.181 361.614 275.949 361.761 262.323 361.761C260.418 361.761 258.513 362.786 256.608 364.838C255.582 366.596 254.996 368.355 254.996 370.259V390.773H290.749C290.895 390.773 291.042 390.92 291.042 391.066V404.4C291.042 404.547 290.895 404.693 290.749 404.693H254.996V448.358C254.996 448.505 254.996 448.505 254.85 448.505H246.205C245.911 448.505 245.911 448.505 245.911 448.358V360.442C245.911 360.296 245.325 360.149 244.006 359.71C239.611 355.314 237.413 349.746 237.413 342.859V341.687C237.413 335.533 239.025 330.404 242.248 326.008L242.541 325.862ZM162.339 345.676L162.192 347.874C162.192 353.442 164.83 356.958 170.105 358.57C170.838 358.863 171.424 359.01 172.01 359.01H227.397C230.767 359.01 233.551 360.621 235.895 363.992C236.921 365.75 237.361 367.362 237.361 368.827V458.208C237.361 461.725 235.602 464.656 232.233 467C230.621 467.879 229.302 468.319 227.836 468.319H174.5C171.57 468.319 168.933 466.707 166.588 463.484C165.416 461.725 164.83 459.527 164.83 456.744V380.256C162.485 379.084 160.434 376.153 158.823 371.758C157.797 368.973 157.211 366.043 157.211 362.673V361.501C157.211 355.347 158.823 350.218 162.046 345.822L162.339 345.676ZM174.207 385.531V385.678C174.207 385.971 174.207 385.971 174.354 385.971L174.207 386.703V443.849C174.207 445.461 175.38 447.073 177.578 448.831C179.043 449.563 180.508 450.003 182.12 450.003H220.217C224.027 450.003 226.518 448.391 227.836 445.314C228.129 444.875 228.129 444.435 228.129 443.995V389.927C228.129 383.919 227.69 380.549 226.664 379.817C225.053 377.765 223.148 376.739 220.803 376.739H183.146C177.285 376.739 174.207 379.67 174.207 385.531ZM447.979 71.7731H448.194C448.194 71.9891 447.979 72.6373 447.759 73.9341C447.759 78.9044 450.785 82.3617 456.406 84.0907C457.051 84.0907 457.701 84.3067 458.567 84.7388H476.501C476.716 84.7388 476.936 84.7388 476.936 84.9549V168.585H524.043C532.685 168.585 537.877 173.34 539.602 182.632V238.386C539.602 243.356 537.226 247.462 532.255 250.488C529.229 251.784 526.854 252.649 524.693 252.649H469.804C465.263 252.649 461.372 250.488 458.567 246.166C456.621 243.14 455.756 239.898 455.756 236.657V105.269H455.541C451.65 105.269 449.059 104.404 447.759 102.459C444.088 98.5693 442.142 93.8151 442.142 87.9802V86.8999C442.142 80.8489 444.088 75.8786 447.979 71.7731ZM476.936 200.136V221.53C476.936 226.068 478.662 229.094 482.338 230.39C483.633 231.039 485.143 231.255 486.874 231.255H518.642C523.828 231.255 527.069 229.31 528.584 225.42C528.799 224.556 528.799 223.907 528.799 223.043V198.624C528.799 194.085 527.719 191.06 525.123 190.195C524.693 189.979 524.478 189.979 524.043 189.979H487.089C482.338 189.979 479.097 191.708 477.366 195.382C477.151 196.679 476.936 198.191 476.936 200.136Z" fill="black"/>
<path d="M323.822 83.176L323.619 86.2162C323.619 93.9187 327.267 98.7839 334.565 101.013H358.483C358.888 101.013 360.307 105.676 362.942 114.797L392.739 212.093L430.239 105.067C430.845 103.243 431.66 102.432 433.075 102.432C433.48 102.23 434.09 102.23 434.701 102.23C440.577 102.23 444.428 104.054 446.048 107.703C448.279 111.554 449.494 115.608 449.494 120.067V252.633C449.494 252.836 449.494 252.836 449.089 252.836H437.131C436.926 252.836 436.726 252.836 436.726 252.633V179.458C436.726 169.729 436.926 156.553 436.926 140.134V139.932H436.726C435.511 143.986 423.753 177.634 401.657 241.079C397.199 248.984 392.334 252.836 387.267 252.836C382.199 252.836 377.537 248.984 373.28 241.484C365.983 217.768 355.848 184.12 342.672 140.134H342.47V252.633C342.47 252.836 342.47 252.836 342.267 252.836H330.105C329.903 252.836 329.7 252.836 329.7 252.633V131.216C327.065 131.216 324.632 129.594 322.403 126.148C318.551 120.675 316.727 114.189 316.727 106.689V105.067C316.727 96.5538 318.957 89.4595 323.416 83.3785L323.822 83.176ZM208.852 83.1755L208.65 86.2127C208.65 93.9077 212.295 98.7674 219.584 100.994C220.597 101.4 221.407 101.602 222.217 101.602H298.758C303.415 101.602 307.263 103.83 310.503 108.487C311.92 110.917 312.528 113.144 312.528 115.169V238.689C312.528 243.548 310.098 247.598 305.44 250.838C303.213 252.053 301.39 252.661 299.365 252.661H225.659C221.609 252.661 217.964 250.433 214.724 245.978C213.104 243.548 212.294 240.511 212.294 236.664V130.964C209.055 129.344 206.22 125.294 203.992 119.219C202.575 115.372 201.765 111.322 201.765 106.664V105.044C201.765 96.5398 203.992 89.4525 208.447 83.378L208.852 83.1755ZM225.254 138.253V138.455C225.254 138.86 225.254 138.86 225.456 138.86L225.254 139.873V218.845C225.254 221.072 226.874 223.299 229.911 225.729C231.936 226.742 233.961 227.349 236.189 227.349H288.836C294.101 227.349 297.543 225.122 299.365 220.869C299.771 220.262 299.771 219.654 299.771 219.047V144.328C299.771 136.026 299.163 131.368 297.746 130.356C295.518 127.521 292.886 126.104 289.646 126.104H237.606C229.506 126.104 225.254 130.153 225.254 138.253Z" fill="black"/>
<path d="M106.409 0L106.109 4.81621C106.109 16.2541 111.527 23.4774 122.362 27.0893C124.168 27.3904 125.372 27.6915 126.576 27.6915H259.616C259.916 27.6915 259.916 27.9926 259.916 28.2936V72.2387C259.916 72.5398 259.916 72.8408 259.616 72.8408H194.902V252.535L194.3 252.835H176.24C175.638 252.835 175.638 252.835 175.638 252.535V72.8408H119.954C113.633 72.8408 109.42 71.336 107.614 68.3257C99.7876 59.597 95.8747 48.7608 95.8747 35.5174V33.1093C95.8747 20.4677 99.1855 9.33085 105.808 0.301076L106.409 0Z" fill="black"/>
</svg>
